<?xml version="1.0" encoding="UTF-8"?>
<svg id="Capa_1" xmlns="http://www.w3.org/2000/svg" version="1.1" viewBox="0 0 120 120">
  <!-- Generator: Adobe Illustrator 29.8.2, SVG Export Plug-In . SVG Version: 2.1.1 Build 3)  -->
  <defs>
    <style>
      .st0 {
        fill: #f28d17;
      }
    </style>
  </defs>
  <path id="Path_18" class="st0" d="M86.6,90.78l-37.67-32.57s1.16-1.16,18.58-15.16c17.48-13.93,20.44-31.99-4.26-33.02-24.7-1.03-29.09,26.83-29.61,36.83-.45,10.06-.13,63.14-.13,63.14l9.03-2,.2-33.86,12.64,32.89,8.71-3.48-12.2-31.02,27.48,23.86,7.22-5.61ZM47.12,27.96c3.93-9.03,14.77-15.16,23.35-8.2,8.58,6.91-24.96,30.9-27.41,32.9,0,0,.13-15.61,4.06-24.7Z"/>
</svg>