<?xml version="1.0" encoding="UTF-8"?> <svg xmlns="http://www.w3.org/2000/svg" viewBox="0 0 213.416 50"><defs><style> .cls-1 { fill: #f28d17; } .cls-2 { fill: #1e1f24; } </style></defs><g id="Group_61" data-name="Group 61" transform="translate(-0.027 0.043)"><path id="Path_18" data-name="Path 18" class="cls-1" d="M26.624,40.347,7.79,24.061s.58-.58,9.288-7.579C25.818,9.516,27.3.487,14.95-.029S.405,13.386.147,18.385C-.078,23.416.083,49.957.083,49.957l4.515-1,.1-16.931,6.321,16.447,4.354-1.741L9.274,31.22,23.012,43.152ZM6.887,8.936c1.967-4.515,7.385-7.579,11.674-4.1C22.851,8.291,6.081,20.288,4.856,21.287,4.856,21.287,4.92,13.483,6.887,8.936Z" transform="translate(0 0)"></path><g id="Group_6" data-name="Group 6" transform="translate(38.233 18.935)"><g id="Group_4" data-name="Group 4"><path id="Path_19" data-name="Path 19" class="cls-2" d="M125.337,46.992V45.734h-5.482V42.025h5.9V40.8H118.5V52.184h7.546V50.926h-6.192V46.992Z" transform="translate(-118.5 -40.607)"></path><path id="Path_20" data-name="Path 20" class="cls-2" d="M148.632,49.8h1.161v7.482h3.934v1.1H148.6V49.8Z" transform="translate(-138.893 -46.704)"></path><path id="Path_21" data-name="Path 21" class="cls-2" d="M181.019,43.88A6.575,6.575,0,0,0,180.6,46.3a5.884,5.884,0,0,0,.387,2.1,5.677,5.677,0,0,0,1.161,1.87,5.351,5.351,0,0,0,1.806,1.322,5.75,5.75,0,0,0,2.386.516,5.443,5.443,0,0,0,1.709-.258,5.687,5.687,0,0,0,1.258-.58,4.733,4.733,0,0,0,.838-.645,4.225,4.225,0,0,0,.387-.419l-1.129-.838a3.849,3.849,0,0,1-1.225,1.064,3.52,3.52,0,0,1-1.774.419,4.788,4.788,0,0,1-1.838-.355,3.924,3.924,0,0,1-1.387-1,4.154,4.154,0,0,1-.871-1.451,5.194,5.194,0,0,1-.29-1.741,4.9,4.9,0,0,1,.322-1.838,4.665,4.665,0,0,1,.871-1.516,4.456,4.456,0,0,1,1.387-1.032,4.12,4.12,0,0,1,1.806-.387,3.888,3.888,0,0,1,1.58.355,3.346,3.346,0,0,1,1.193.9l1.129-.838a4.274,4.274,0,0,0-1.677-1.225,5.761,5.761,0,0,0-2.193-.419,6.292,6.292,0,0,0-2.386.451,5.566,5.566,0,0,0-1.838,1.225A5.459,5.459,0,0,0,181.019,43.88Z" transform="translate(-160.573 -40.268)"></path><path id="Path_22" data-name="Path 22" class="cls-2" d="M439.813,50.52a4.225,4.225,0,0,0,.387-.419l-1.129-.838a3.849,3.849,0,0,1-1.225,1.064,3.52,3.52,0,0,1-1.774.419,4.788,4.788,0,0,1-1.838-.355,3.924,3.924,0,0,1-1.387-1,4.154,4.154,0,0,1-.871-1.451,5.194,5.194,0,0,1-.29-1.741,4.9,4.9,0,0,1,.323-1.838,4.664,4.664,0,0,1,.871-1.516,4.455,4.455,0,0,1,1.387-1.032,4.12,4.12,0,0,1,1.806-.387,3.888,3.888,0,0,1,1.58.355,3.346,3.346,0,0,1,1.193.9l1.129-.838a4.274,4.274,0,0,0-1.677-1.225,5.719,5.719,0,0,0-2.161-.419,6.292,6.292,0,0,0-2.386.451,5.566,5.566,0,0,0-1.838,1.225,5.458,5.458,0,0,0-1.193,1.9A6.575,6.575,0,0,0,430.3,46.2a5.884,5.884,0,0,0,.387,2.1,5.678,5.678,0,0,0,1.161,1.87,5.35,5.35,0,0,0,1.806,1.322A5.751,5.751,0,0,0,436.04,52a5.443,5.443,0,0,0,1.709-.258,5.686,5.686,0,0,0,1.258-.58A4.161,4.161,0,0,0,439.813,50.52Z" transform="translate(-329.747 -40.2)"></path><path id="Path_23" data-name="Path 23" class="cls-2" d="M217.9,49.8h5.547v1.1h-4.386v2.548h4.1v1.1h-4.1v2.741h4.612v1.1H217.9Z" transform="translate(-185.844 -46.704)"></path><path id="Path_24" data-name="Path 24" class="cls-2" d="M245.432,49.8h1.161v7.482h3.934v1.1H245.4V49.8Z" transform="translate(-204.476 -46.704)"></path><path id="Path_25" data-name="Path 25" class="cls-2" d="M269.232,49.8h1.161v7.482h3.934v1.1H269.2V49.8Z" transform="translate(-220.601 -46.704)"></path><path id="Path_26" data-name="Path 26" class="cls-2" d="M293.9,49.8h5.547v1.1h-4.386v2.548h4.1v1.1h-4.1v2.741h4.612v1.1H293.9Z" transform="translate(-237.335 -46.704)"></path><path id="Path_27" data-name="Path 27" class="cls-2" d="M321,49.8h3.031a3.3,3.3,0,0,1,1.354.226,2.41,2.41,0,0,1,.839.58,1.819,1.819,0,0,1,.419.774,2.657,2.657,0,0,1,.129.838,2.246,2.246,0,0,1-.161.806,1.841,1.841,0,0,1-.419.677,2.69,2.69,0,0,1-.677.516,2.494,2.494,0,0,1-.871.258L327.1,58.41h-1.451l-2.193-3.805h-1.29V58.41H321Zm1.161,3.773h1.516a4.811,4.811,0,0,0,.677-.064,1.541,1.541,0,0,0,.58-.193,1.048,1.048,0,0,0,.419-.419,1.642,1.642,0,0,0,0-1.419,1.048,1.048,0,0,0-.419-.419,1.762,1.762,0,0,0-.58-.193,4.811,4.811,0,0,0-.677-.064h-1.516Z" transform="translate(-255.696 -46.704)"></path><path id="Path_28" data-name="Path 28" class="cls-2" d="M361.5,49.8h3a6.139,6.139,0,0,1,1.612.193,4.5,4.5,0,0,1,1.193.548,3.323,3.323,0,0,1,.838.806,3.81,3.81,0,0,1,.516.935,6.141,6.141,0,0,1,.29.935,4.483,4.483,0,0,1,.1.871,4.6,4.6,0,0,1-.29,1.612,4.286,4.286,0,0,1-.9,1.387,4.765,4.765,0,0,1-3.515,1.322h-2.806V49.8Zm1.161,7.482h1.483a4.8,4.8,0,0,0,1.387-.193,2.869,2.869,0,0,0,1.161-.613,2.978,2.978,0,0,0,.774-1,3.134,3.134,0,0,0,.29-1.387,3.639,3.639,0,0,0-.129-.967,3.234,3.234,0,0,0-.516-1.064,3.019,3.019,0,0,0-1.032-.838,3.737,3.737,0,0,0-1.709-.355h-1.741v6.418Z" transform="translate(-283.135 -46.704)"></path><path id="Path_29" data-name="Path 29" class="cls-2" d="M395.3,49.8h5.547v1.1h-4.386v2.548h4.1v1.1h-4.1v2.741h4.612v1.1H395.3Z" transform="translate(-306.035 -46.704)"></path><path id="Path_30" data-name="Path 30" class="cls-2" d="M465.573,49.8h1.064l3.676,8.611h-1.354l-.871-2.128h-4.1l-.839,2.128H461.8Zm2.1,5.45-1.612-3.934h-.032l-1.612,3.934Z" transform="translate(-351.089 -46.704)"></path><path id="Path_31" data-name="Path 31" class="cls-2" d="M496.2,49.8h1.516l4.741,7.063h.032V49.8h1.161V58.41h-1.483l-4.773-7.063h-.032V58.41H496.2Z" transform="translate(-374.395 -46.704)"></path><path id="Path_32" data-name="Path 32" class="cls-2" d="M547.289,47.021l2.935,5.1h1.709l-3.289-5.289.194-.032A2.871,2.871,0,0,0,550,46.44a3.137,3.137,0,0,0,.871-.677,3.225,3.225,0,0,0,.548-.9,2.793,2.793,0,0,0,.193-1.032,4.508,4.508,0,0,0-.161-1.1,2.545,2.545,0,0,0-.548-1,3.122,3.122,0,0,0-1.1-.742A4.7,4.7,0,0,0,548,40.7h-4V52.084h1.354v-5.1l1.935.032Zm-1.935-5.16h2.193a9.11,9.11,0,0,1,.935.064,3.209,3.209,0,0,1,.838.29,1.6,1.6,0,0,1,.613.613,1.912,1.912,0,0,1,.226,1,1.7,1.7,0,0,1-.839,1.612,3.209,3.209,0,0,1-.838.29,4.411,4.411,0,0,1-.935.064h-2.193Z" transform="translate(-406.78 -40.539)"></path><path id="Path_33" data-name="Path 33" class="cls-2" d="M578.383,58.13a4.744,4.744,0,0,1-1.806-.355,3.968,3.968,0,0,1-1.419-.967,4.376,4.376,0,0,1-1.258-3.193,4.568,4.568,0,0,1,.322-1.774,3.893,3.893,0,0,1,.935-1.419,4.428,4.428,0,0,1,1.419-.967,4.774,4.774,0,0,1,3.612,0,3.968,3.968,0,0,1,1.419.967,4.376,4.376,0,0,1,1.258,3.193,4.568,4.568,0,0,1-.323,1.774,3.893,3.893,0,0,1-.935,1.419,4.429,4.429,0,0,1-1.419.967A4.109,4.109,0,0,1,578.383,58.13Zm0-1.1a3.45,3.45,0,0,0,1.322-.258,3.369,3.369,0,0,0,1.032-.742,2.9,2.9,0,0,0,.645-1.1,3.679,3.679,0,0,0,.226-1.322,3.562,3.562,0,0,0-.226-1.322,4.1,4.1,0,0,0-.645-1.1,3.023,3.023,0,0,0-1.032-.742,2.938,2.938,0,0,0-1.322-.258,3.451,3.451,0,0,0-1.322.258,3.37,3.37,0,0,0-1.032.742,2.9,2.9,0,0,0-.645,1.1,3.679,3.679,0,0,0-.226,1.322,3.562,3.562,0,0,0,.226,1.322,4.1,4.1,0,0,0,.645,1.1,3.024,3.024,0,0,0,1.032.742A3.451,3.451,0,0,0,578.383,57.033Z" transform="translate(-427.038 -46.23)"></path><path id="Path_34" data-name="Path 34" class="cls-2" d="M616.482,51.028a2.654,2.654,0,0,0-.935-.742,2.9,2.9,0,0,0-1.161-.258,3.45,3.45,0,0,0-1.322.258,2.9,2.9,0,0,0-1,.742,3.4,3.4,0,0,0-.645,1.1,3.735,3.735,0,0,0-.226,1.354,3.508,3.508,0,0,0,.226,1.29,2.944,2.944,0,0,0,.645,1.064,3.234,3.234,0,0,0,1,.742,2.991,2.991,0,0,0,1.354.258,2.719,2.719,0,0,0,1.29-.29,2.589,2.589,0,0,0,.935-.838l1,.742a3.242,3.242,0,0,1-.355.387,3.725,3.725,0,0,1-.645.484,4.527,4.527,0,0,1-.967.451,4.015,4.015,0,0,1-1.29.193,4.265,4.265,0,0,1-1.838-.387,4.455,4.455,0,0,1-1.387-1.032,4.326,4.326,0,0,1-.871-1.419,4.6,4.6,0,0,1-.29-1.612,4.785,4.785,0,0,1,.323-1.838,4.424,4.424,0,0,1,.9-1.451,3.968,3.968,0,0,1,1.419-.967,4.745,4.745,0,0,1,1.806-.355,4.31,4.31,0,0,1,1.677.322,3.242,3.242,0,0,1,1.354,1Z" transform="translate(-451.496 -46.094)"></path><path id="Path_35" data-name="Path 35" class="cls-2" d="M639.173,49.8h1.064l3.676,8.611h-1.354l-.871-2.128h-4.1l-.839,2.128H635.4Zm2.1,5.45-1.612-3.934h-.032l-1.612,3.934Z" transform="translate(-468.705 -46.704)"></path></g></g></g></svg> 